# xmcd CD database file
# Copyright (C) 1993-1998 Ti Kan
# 
# Track frame offsets:
#     150
#     15488
#     34520
#     51050
#     66613
#     82285
#     102655
#     118180
#     133693
#     150363
#     169250
#     182668
# 
# Disc length: 2623 seconds
# 
# Revision: 1
# Processed by: cddbd v1.4b41PL1 Copyright (c) Steve Scherf et al.
# Submitted via: DiscPlay 4.0.4
# 
DISCID=a40a3d0c
DTITLE=St.Claire, Bonnie - Jij bent niet alleen
DYEAR=1900
DGENRE=
TTITLE0=Ik heb genoeg aan jou
TTITLE1=Jij bent niet alleen
TTITLE2=Het is weer zomer
TTITLE3=Iedereen weet drommels goed
TTITLE4='N dag om in te bijten
TTITLE5=Ik denk alleen maar aan jou
TTITLE6=Alle jaren liever
TTITLE7=Als we allemaal hetzelfde doen
TTITLE8=Dan neem je mij weer in je armen
TTITLE9=Op 'n tropisch eiland
TTITLE10=Met vader naar de kermis
TTITLE11=Leven wil ik alleen met jou
EXTD=
EXTT0=
EXTT1=
EXTT2=
EXTT3=
EXTT4=
EXTT5=
EXTT6=
EXTT7=
EXTT8=
EXTT9=
EXTT10=
EXTT11=
PLAYORDER=
